<svg xmlns="http://www.w3.org/2000/svg" viewBox="0 0 300 60">
  <rect width="300" height="60" fill="#f86906" />
  <path d="M20.7,42.5c-1.2,0-2.3-0.2-3.3-0.6c-1-0.4-1.9-1-2.7-1.7c-0.8-0.7-1.4-1.5-1.8-2.4c-0.4-0.9-0.7-1.9-0.7-3h6.1
    c0.1,0.8,0.4,1.5,0.9,2c0.5,0.5,1.1,0.8,1.9,0.8c0.8,0,1.4-0.2,1.9-0.7c0.5-0.5,0.7-1.1,0.7-1.9c0-0.7-0.2-1.2-0.6-1.6
    c-0.4-0.4-0.9-0.8-1.5-1.1c-0.6-0.3-1.3-0.6-2-0.9c-0.7-0.3-1.4-0.6-2-1c-0.7-0.4-1.2-0.9-1.7-1.4c-0.4-0.5-0.8-1.1-1.1-1.9
    c-0.3-0.7-0.4-1.5-0.4-2.5c0-1.1,0.2-2.1,0.7-3c0.5-0.9,1.1-1.6,1.9-2.2c0.8-0.6,1.7-1.1,2.7-1.4c1-0.3,2.1-0.5,3.2-0.5
    c1.2,0,2.3,0.2,3.3,0.5c1,0.3,1.9,0.8,2.6,1.4c0.7,0.6,1.3,1.3,1.7,2.2c0.4,0.9,0.7,1.8,0.7,2.9h-6.1c-0.1-0.6-0.3-1.2-0.7-1.6
    c-0.4-0.4-0.9-0.6-1.6-0.6c-0.7,0-1.2,0.2-1.6,0.6c-0.4,0.4-0.6,0.9-0.6,1.6c0,0.5,0.1,0.9,0.4,1.3c0.3,0.3,0.6,0.6,1,0.9
    c0.4,0.2,0.9,0.5,1.5,0.7c0.6,0.2,1.1,0.4,1.7,0.7c0.7,0.3,1.4,0.6,2.1,1c0.7,0.4,1.3,0.9,1.8,1.4c0.5,0.6,0.9,1.2,1.3,2
    c0.3,0.8,0.5,1.7,0.5,2.7c0,1.1-0.2,2.1-0.7,3c-0.5,0.9-1.1,1.7-1.9,2.3c-0.8,0.6-1.7,1.1-2.8,1.5C23,42.3,21.9,42.5,20.7,42.5z" fill="#000"/>
  <path d="M35.6,16.1h14.8v4.9h-8.7v5.8h7.6v4.9h-7.6v5.8h8.7v4.9H35.6V16.1z" fill="#000"/>
  <path d="M55.4,16.1h7c1.9,0,3.7,0.2,5.3,0.7c1.6,0.5,3,1.2,4.2,2.2c1.2,1,2.1,2.2,2.8,3.7c0.7,1.5,1,3.2,1,5.1
    c0,1.9-0.3,3.6-1,5.1c-0.7,1.5-1.6,2.7-2.8,3.7c-1.2,1-2.6,1.7-4.2,2.2c-1.6,0.5-3.4,0.7-5.3,0.7h-7V16.1z M62.1,34.6
    c1.1,0,2.1-0.1,3-0.4c0.9-0.3,1.6-0.7,2.2-1.2c0.6-0.5,1.1-1.2,1.4-2c0.3-0.8,0.5-1.7,0.5-2.8c0-1.1-0.2-2-0.5-2.8
    c-0.3-0.8-0.8-1.5-1.4-2c-0.6-0.5-1.3-0.9-2.2-1.2c-0.9-0.3-1.9-0.4-3-0.4h-1.1v12.7H62.1z" fill="#000"/>
  <path d="M79.3,16.1h6.1V37h7.6v5.4H79.3V16.1z" fill="#000"/>
  <path d="M110.5,16.1h6.1v26.3h-6.1V16.1z" fill="#000"/>
  <path d="M133.6,16.1h5.4l8.5,26.3h-6.3l-1.5-5.2h-7l-1.5,5.2h-6.3L133.6,16.1z M138.2,32.5l-2.3-8.2l-2.3,8.2H138.2z" fill="#000"/>
  <path d="M151.7,16.1h6.1v21.1h7.6v5.2h-13.7V16.1z" fill="#000"/>
  <path d="M171.4,16.1h15.8v4.9h-9.7v5.8h8.1v4.9h-8.1v10.6h-6.1V16.1z" fill="#000"/>
  <path d="M191.1,16.1h14.8v4.9h-8.7v5.8h7.6v4.9h-7.6v5.8h8.7v4.9h-14.8V16.1z" fill="#000"/>
  <path d="M209.7,16.1h6.1v10.6h7.6V16.1h6.1v26.3H223V31.9h-7.6v10.5h-5.7V16.1z" fill="#000"/>
  <path d="M241.3,16.1h5.4l8.5,26.3h-6.3l-1.5-5.2h-7l-1.5,5.2h-6.3L241.3,16.1z M246,32.5l-2.3-8.2l-2.3,8.2H246z" fill="#000"/>
  <path d="M257.8,16.1h6.1v21.1h7.6v5.2h-13.7V16.1z" fill="#000"/>
</svg>
