<svg xmlns="http://www.w3.org/2000/svg" viewBox="0 0 200 100">
  <style>
    .bus-body { fill: #4a90e2; }
    .bus-window { fill: #a1d6e2; }
    .bus-wheel { fill: #333; }
    .bus-light { fill: #f8f8f8; }
    .bus-detail { fill: #2c5ea0; }
    .bus-door { fill: #3a77c0; }
  </style>
  <path class="bus-body" d="M10,80h180c3,0,5-2,5-5V25c0-3-2-5-5-5H10c-3,0-5,2-5,5v50C5,78,7,80,10,80z"/>
  <rect class="bus-window" x="20" y="30" width="15" height="15" rx="2"/>
  <rect class="bus-window" x="40" y="30" width="15" height="15" rx="2"/>
  <rect class="bus-window" x="60" y="30" width="15" height="15" rx="2"/>
  <rect class="bus-window" x="80" y="30" width="15" height="15" rx="2"/>
  <rect class="bus-window" x="105" y="30" width="15" height="15" rx="2"/>
  <rect class="bus-window" x="125" y="30" width="15" height="15" rx="2"/>
  <rect class="bus-window" x="145" y="30" width="15" height="15" rx="2"/>
  <rect class="bus-window" x="165" y="30" width="15" height="15" rx="2"/>
  <path class="bus-door" d="M100,50v25c0,2.5-2,5-5,5h-10c-3,0-5-2.5-5-5V50H100z"/>
  <line x1="90" y1="50" x2="90" y2="80" stroke="#2c5ea0" stroke-width="1"/>
  <circle class="bus-wheel" cx="40" cy="80" r="10"/>
  <circle class="bus-wheel" cx="160" cy="80" r="10"/>
  <rect class="bus-light" x="5" y="55" width="8" height="5" rx="2"/>
  <rect class="bus-light" x="187" y="55" width="8" height="5" rx="2"/>
  <rect class="bus-detail" x="20" y="70" width="160" height="2"/>
  <rect class="bus-detail" x="20" y="20" width="160" height="5"/>
</svg>
