<svg xmlns="http://www.w3.org/2000/svg" viewBox="0 0 200 100">
  <style>
    .bus-body { fill: #c9e0ed; }
    .bus-window { fill: #a1d6e2; }
    .bus-wheel { fill: #333; }
    .bus-light { fill: #f8f8f8; }
    .bus-detail { fill: #707070; }
  </style>
  <path class="bus-body" d="M20,75h160c3,0,5-2,5-5V35c0-3-2-5-5-5H20c-3,0-5,2-5,5v35C15,73,17,75,20,75z"/>
  <path class="bus-body" d="M15,35h170v-10c0,0,0-5-5-5H20c-5,0-5,5-5,5V35z"/>
  <rect class="bus-window" x="25" y="35" width="15" height="15" rx="2"/>
  <rect class="bus-window" x="45" y="35" width="15" height="15" rx="2"/>
  <rect class="bus-window" x="65" y="35" width="15" height="15" rx="2"/>
  <rect class="bus-window" x="85" y="35" width="15" height="15" rx="2"/>
  <rect class="bus-window" x="105" y="35" width="15" height="15" rx="2"/>
  <rect class="bus-window" x="125" y="35" width="15" height="15" rx="2"/>
  <rect class="bus-window" x="145" y="35" width="15" height="15" rx="2"/>
  <rect class="bus-window" x="165" y="35" width="15" height="15" rx="2"/>
  <rect class="bus-window" x="25" y="20" width="155" height="10"/>
  <circle class="bus-wheel" cx="45" cy="75" r="10"/>
  <circle class="bus-wheel" cx="155" cy="75" r="10"/>
  <rect class="bus-light" x="15" y="55" width="8" height="5" rx="2"/>
  <rect class="bus-light" x="177" y="55" width="8" height="5" rx="2"/>
  <rect class="bus-detail" x="60" y="65" width="80" height="2"/>
  <rect class="bus-detail" x="110" y="60" width="5" height="10"/>
</svg>
